<?xml version="1.0" encoding="UTF-8" standalone="no"?>
<!-- Created with Inkscape (http://www.inkscape.org/) -->

<svg
   xmlns:dc="http://purl.org/dc/elements/1.1/"
   xmlns:cc="http://creativecommons.org/ns#"
   xmlns:rdf="http://www.w3.org/1999/02/22-rdf-syntax-ns#"
   xmlns:svg="http://www.w3.org/2000/svg"
   xmlns="http://www.w3.org/2000/svg"
   xmlns:sodipodi="http://sodipodi.sourceforge.net/DTD/sodipodi-0.dtd"
   xmlns:inkscape="http://www.inkscape.org/namespaces/inkscape"
   width="210mm"
   height="297mm"
   viewBox="0 0 744.09448819 1052.3622047"
   id="svg6530"
   version="1.1"
   inkscape:version="0.91 r13725"
   sodipodi:docname="frame.svg">
  <defs
     id="defs6532">
    <filter
       inkscape:collect="always"
       style="color-interpolation-filters:sRGB"
       id="filter7159"
       x="-0.090729207"
       width="1.1814584"
       y="-0.022454882"
       height="1.0449098">
      <feGaussianBlur
         inkscape:collect="always"
         stdDeviation="10.396586"
         id="feGaussianBlur7161" />
    </filter>
  </defs>
  <sodipodi:namedview
     id="base"
     pagecolor="#ffffff"
     bordercolor="#666666"
     borderopacity="1.0"
     inkscape:pageopacity="0.0"
     inkscape:pageshadow="2"
     inkscape:zoom="0.49497475"
     inkscape:cx="188.23336"
     inkscape:cy="772.65838"
     inkscape:document-units="px"
     inkscape:current-layer="layer1"
     showgrid="false"
     inkscape:window-width="1680"
     inkscape:window-height="1007"
     inkscape:window-x="1280"
     inkscape:window-y="0"
     inkscape:window-maximized="1" />
  <metadata
     id="metadata6535">
    <rdf:RDF>
      <cc:Work
         rdf:about="">
        <dc:format>image/svg+xml</dc:format>
        <dc:type
           rdf:resource="http://purl.org/dc/dcmitype/StillImage" />
        <dc:title></dc:title>
      </cc:Work>
    </rdf:RDF>
  </metadata>
  <g
     inkscape:label="Layer 1"
     inkscape:groupmode="layer"
     id="layer1">
    <g
       id="g7163">
      <rect
         y="-59.058151"
         x="129.55206"
         height="1111.1974"
         width="275.01404"
         id="rect7145"
         style="opacity:1;fill:#333333;fill-opacity:1;stroke:#00ff00;stroke-width:3.99999976;stroke-linecap:round;stroke-linejoin:miter;stroke-miterlimit:4;stroke-dasharray:none;stroke-opacity:1;filter:url(#filter7159)" />
      <path
         inkscape:connector-curvature="0"
         id="rect7078"
         d="m 129.73098,-59.496094 0,119.822266 274.24219,0 0,-119.822266 -274.24219,0 z m 0,123.822266 0,119.822268 274.24219,0 0,-119.822268 -274.24219,0 z m 0,123.822268 0,119.82031 274.24219,0 0,-119.82031 -274.24219,0 z m 0,123.82031 0,119.82227 274.24219,0 0,-119.82227 -274.24219,0 z m 0,123.82227 0,119.82226 274.24219,0 0,-119.82226 -274.24219,0 z m 0,123.82226 0,119.82031 274.24219,0 0,-119.82031 -274.24219,0 z m 0,123.82031 0,119.82227 274.24219,0 0,-119.82227 -274.24219,0 z m 0,123.82227 0,119.82031 274.24219,0 0,-119.82031 -274.24219,0 z m 0,123.82031 0,119.82223 274.24219,0 0,-119.82223 -274.24219,0 z"
         style="opacity:1;fill:#37bc37;fill-opacity:1;stroke:#00840f;stroke-width:4;stroke-linecap:round;stroke-linejoin:miter;stroke-miterlimit:4;stroke-dasharray:none;stroke-opacity:1" />
    </g>
  </g>
</svg>
