<?xml version="1.0" encoding="UTF-8" standalone="no"?>
<!-- Created with Inkscape (http://www.inkscape.org/) -->

<svg
   xmlns:dc="http://purl.org/dc/elements/1.1/"
   xmlns:cc="http://creativecommons.org/ns#"
   xmlns:rdf="http://www.w3.org/1999/02/22-rdf-syntax-ns#"
   xmlns:svg="http://www.w3.org/2000/svg"
   xmlns="http://www.w3.org/2000/svg"
   xmlns:xlink="http://www.w3.org/1999/xlink"
   xmlns:sodipodi="http://sodipodi.sourceforge.net/DTD/sodipodi-0.dtd"
   xmlns:inkscape="http://www.inkscape.org/namespaces/inkscape"
   width="210mm"
   height="297mm"
   viewBox="0 0 744.09448819 1052.3622047"
   id="svg10321"
   version="1.1"
   inkscape:version="0.91 r13725"
   sodipodi:docname="plus.svg">
  <defs
     id="defs10323">
    <linearGradient
       inkscape:collect="always"
       id="linearGradient10878">
      <stop
         style="stop-color:#ffbb8d;stop-opacity:1"
         offset="0"
         id="stop10880" />
      <stop
         style="stop-color:#ffb380;stop-opacity:0;"
         offset="1"
         id="stop10882" />
    </linearGradient>
    <radialGradient
       inkscape:collect="always"
       xlink:href="#linearGradient10878"
       id="radialGradient10886"
       cx="-1004.2852"
       cy="619.50488"
       fx="-1004.2852"
       fy="619.50488"
       r="374.85744"
       gradientTransform="matrix(1,0,0,0.99999736,0,0.00163611)"
       gradientUnits="userSpaceOnUse" />
  </defs>
  <sodipodi:namedview
     id="base"
     pagecolor="#ffffff"
     bordercolor="#666666"
     borderopacity="1.0"
     inkscape:pageopacity="0.0"
     inkscape:pageshadow="2"
     inkscape:zoom="0.35"
     inkscape:cx="-182.14286"
     inkscape:cy="520"
     inkscape:document-units="px"
     inkscape:current-layer="layer1"
     showgrid="false"
     inkscape:window-width="1680"
     inkscape:window-height="1007"
     inkscape:window-x="1280"
     inkscape:window-y="0"
     inkscape:window-maximized="1" />
  <metadata
     id="metadata10326">
    <rdf:RDF>
      <cc:Work
         rdf:about="">
        <dc:format>image/svg+xml</dc:format>
        <dc:type
           rdf:resource="http://purl.org/dc/dcmitype/StillImage" />
        <dc:title></dc:title>
      </cc:Work>
    </rdf:RDF>
  </metadata>
  <g
     inkscape:label="Layer 1"
     inkscape:groupmode="layer"
     id="layer1">
    <g
       id="g10888">
      <path
         id="path10869"
         d="M -1004.2852 246.64844 A 372.85715 372.85715 0 0 0 -1377.1426 619.50586 A 372.85715 372.85715 0 0 0 -1004.2852 992.36133 A 372.85715 372.85715 0 0 0 -631.42773 619.50586 A 372.85715 372.85715 0 0 0 -1004.2852 246.64844 z M -1046.1152 299.8125 L -962.45703 299.8125 L -962.45703 577.17773 L -685.08984 577.17773 L -685.08984 661.83203 L -962.45703 661.83203 L -962.45703 939.19727 L -1046.1152 939.19727 L -1046.1152 661.83203 L -1323.4805 661.83203 L -1323.4805 577.17773 L -1046.1152 577.17773 L -1046.1152 299.8125 z "
         style="opacity:1;fill:#917c6f;fill-opacity:1;stroke:none;stroke-width:4;stroke-linecap:round;stroke-linejoin:miter;stroke-miterlimit:4;stroke-dasharray:none;stroke-opacity:1" />
      <path
         style="opacity:1;fill:url(#radialGradient10886);fill-opacity:1;stroke:none;stroke-width:4;stroke-linecap:round;stroke-linejoin:miter;stroke-miterlimit:4;stroke-dasharray:none;stroke-opacity:1"
         d="M -1004.2852 246.64844 A 372.85715 372.85715 0 0 0 -1377.1426 619.50586 A 372.85715 372.85715 0 0 0 -1004.2852 992.36133 A 372.85715 372.85715 0 0 0 -631.42773 619.50586 A 372.85715 372.85715 0 0 0 -1004.2852 246.64844 z M -1046.1152 299.8125 L -962.45703 299.8125 L -962.45703 577.17773 L -685.08984 577.17773 L -685.08984 661.83203 L -962.45703 661.83203 L -962.45703 939.19727 L -1046.1152 939.19727 L -1046.1152 661.83203 L -1323.4805 661.83203 L -1323.4805 577.17773 L -1046.1152 577.17773 L -1046.1152 299.8125 z "
         id="path10876" />
    </g>
  </g>
</svg>
