<?xml version="1.0" encoding="UTF-8" standalone="no"?>
<!-- Created with Inkscape (http://www.inkscape.org/) -->

<svg
   xmlns:dc="http://purl.org/dc/elements/1.1/"
   xmlns:cc="http://creativecommons.org/ns#"
   xmlns:rdf="http://www.w3.org/1999/02/22-rdf-syntax-ns#"
   xmlns:svg="http://www.w3.org/2000/svg"
   xmlns="http://www.w3.org/2000/svg"
   xmlns:sodipodi="http://sodipodi.sourceforge.net/DTD/sodipodi-0.dtd"
   xmlns:inkscape="http://www.inkscape.org/namespaces/inkscape"
   width="210mm"
   height="297mm"
   viewBox="0 0 744.09448819 1052.3622047"
   id="svg5837"
   version="1.1"
   inkscape:version="0.91 r13725"
   sodipodi:docname="virtual_address.svg">
  <defs
     id="defs5839">
    <filter
       inkscape:collect="always"
       style="color-interpolation-filters:sRGB"
       id="filter6526"
       x="-0.077657862"
       width="1.1553157"
       y="-0.014193187"
       height="1.0283864">
      <feGaussianBlur
         inkscape:collect="always"
         stdDeviation="8.2254202"
         id="feGaussianBlur6528" />
    </filter>
  </defs>
  <sodipodi:namedview
     id="base"
     pagecolor="#ffffff"
     bordercolor="#666666"
     borderopacity="1.0"
     inkscape:pageopacity="0.0"
     inkscape:pageshadow="2"
     inkscape:zoom="0.35355339"
     inkscape:cx="86.19539"
     inkscape:cy="410.88074"
     inkscape:document-units="px"
     inkscape:current-layer="layer1"
     showgrid="false"
     inkscape:window-width="1680"
     inkscape:window-height="1007"
     inkscape:window-x="1280"
     inkscape:window-y="0"
     inkscape:window-maximized="1" />
  <metadata
     id="metadata5842">
    <rdf:RDF>
      <cc:Work
         rdf:about="">
        <dc:format>image/svg+xml</dc:format>
        <dc:type
           rdf:resource="http://purl.org/dc/dcmitype/StillImage" />
        <dc:title></dc:title>
      </cc:Work>
    </rdf:RDF>
  </metadata>
  <g
     inkscape:label="Layer 1"
     inkscape:groupmode="layer"
     id="layer1">
    <rect
       style="opacity:1;fill:#4d4d4d;fill-opacity:1;stroke:#d45500;stroke-width:3;stroke-linecap:round;stroke-linejoin:miter;stroke-miterlimit:4;stroke-dasharray:none;stroke-opacity:1;filter:url(#filter6526)"
       id="rect6484"
       width="254.2049"
       height="1390.8792"
       x="66.397552"
       y="-248.85559" />
    <path
       style="opacity:1;fill:#ffae00;fill-opacity:1;stroke:#d45500;stroke-width:2.0999999;stroke-linecap:round;stroke-linejoin:miter;stroke-miterlimit:4;stroke-dasharray:none;stroke-opacity:1"
       d="M 66 -249.16602 L 66 -164.16602 L 321 -164.16602 L 321 -249.16602 L 66 -249.16602 z M 66 -162.06641 L 66 -77.066406 L 321 -77.066406 L 321 -162.06641 L 66 -162.06641 z M 66 -74.964844 L 66 10.035156 L 321 10.035156 L 321 -74.964844 L 66 -74.964844 z M 66 12.134766 L 66 97.134766 L 321 97.134766 L 321 12.134766 L 66 12.134766 z M 66 99.234375 L 66 184.23438 L 321 184.23438 L 321 99.234375 L 66 99.234375 z M 66 186.33398 L 66 271.33398 L 321 271.33398 L 321 186.33398 L 66 186.33398 z M 66 273.43359 L 66 358.43359 L 321 358.43359 L 321 273.43359 L 66 273.43359 z M 66 360.53516 L 66 445.53516 L 321 445.53516 L 321 360.53516 L 66 360.53516 z M 66 447.63477 L 66 532.63477 L 321 532.63477 L 321 447.63477 L 66 447.63477 z M 66 534.73438 L 66 619.73438 L 321 619.73438 L 321 534.73438 L 66 534.73438 z M 66 621.83398 L 66 706.83398 L 321 706.83398 L 321 621.83398 L 66 621.83398 z M 66 708.93359 L 66 793.93359 L 321 793.93359 L 321 708.93359 L 66 708.93359 z M 66 796.03516 L 66 881.03516 L 321 881.03516 L 321 796.03516 L 66 796.03516 z M 66 883.13477 L 66 968.13477 L 321 968.13477 L 321 883.13477 L 66 883.13477 z M 66 970.23438 L 66 1055.2344 L 321 1055.2344 L 321 970.23438 L 66 970.23438 z M 66 1057.334 L 66 1142.334 L 321 1142.334 L 321 1057.334 L 66 1057.334 z "
       id="rect6385" />
  </g>
</svg>
